<?xml version="1.0" encoding="iso-8859-1"?>
<!-- Generator: Adobe Illustrator 16.0.0, SVG Export Plug-In . SVG Version: 6.00 Build 0)  -->
<!DOCTYPE svg PUBLIC "-//W3C//DTD SVG 1.1//EN" "http://www.w3.org/Graphics/SVG/1.1/DTD/svg11.dtd">
<svg version="1.1" id="Capa_1" xmlns="http://www.w3.org/2000/svg" xmlns:xlink="http://www.w3.org/1999/xlink" x="0px" y="0px"
	 width="34.061px" height="34.061px" viewBox="0 0 34.061 34.061" style="enable-background:new 0 0 34.061 34.061;"
	 xml:space="preserve">
<g>
	<path d="M32.431,18.82v-0.782h-0.758l-0.112-1.991l-0.226,0.088c-0.67,0.262-1.332,0.39-2.022,0.39
		c-0.021,0-0.037-0.003-0.056-0.004l-0.045-0.469c-0.008,0.001-0.621-5.379-0.621-5.379c0.096-0.7,0.221-1.766,0.269-2.86
		C28.938,5.941,29.22,0,23.831,0c-5.391,0-5.242,4.961-5.242,4.961l0.394,6.435l-0.513,5.101c-0.143,0.012-0.28,0.028-0.428,0.028
		c-0.691,0-1.353-0.128-2.023-0.39l-0.225-0.088l-0.111,1.991h-0.787v0.782h-1.724v-1.421h-1.61v-0.786H9.455v0.786h-6.62
		C2.559,14.193,2.137,6.56,4.147,4.643c1.101-1.052,2.475-1.421,3.771-1.01c1.094,0.346,1.957,1.187,2.289,2.192L9.284,5.914
		l0.138,1.431l-1.43,0.138l-0.802,4.429l2.807-0.271c0.16,0.505,0.636,0.859,1.186,0.805c0.549-0.053,0.949-0.49,1.009-1.018
		l2.703-0.263l-1.639-4.193l-1.24,0.122l-0.139-1.432l-1.051,0.103c-0.36-1.248-1.395-2.299-2.722-2.717
		c-1.515-0.478-3.111-0.06-4.38,1.15c-2.208,2.107-1.796,9.883-1.508,13.201H1.062v1.421v0.047v1.753h1.413v13.44H5.09V20.62h23.09
		v13.44h2.615V20.62h2.203v-1.8H32.431z M21.034,15.612c-0.231,0.075-0.478,0.15-0.73,0.222l0.291-2.251
		c0.225,0.759,0.439,1.483,0.593,1.981C21.136,15.581,21.087,15.596,21.034,15.612z M31.237,16.544l0.074,1.317h-7.456
		c0.021-0.469,0.162-1.749,1.097-1.861c0.416-0.052,0.94,0.121,1.564,0.322c0.762,0.246,1.711,0.553,2.796,0.553
		C29.971,16.875,30.603,16.767,31.237,16.544z M26.581,15.69c0.084-0.543,0.242-1.531,0.42-2.562l0.384,2.789
		C27.104,15.851,26.837,15.771,26.581,15.69z M19.669,4.346c1.172-0.08,5.216-0.447,5.319-1.756c0.386,0.71,2.427,2.5,3.236,2.618
		c-0.183,1.79-1.465,3.253-3.158,3.709v1.499h0.009l0.543,0.258l-1.707,3.076l-1.672-3.171l0.426-0.106v-1.6
		c-1.748-0.545-3.018-2.177-3.018-4.105C19.647,4.625,19.654,4.484,19.669,4.346z M16.117,16.544
		c0.635,0.223,1.267,0.331,1.923,0.331c1.086,0,2.035-0.307,2.795-0.553C21.46,16.121,21.984,15.948,22.4,16
		c0.933,0.112,1.076,1.393,1.097,1.861h-7.455L16.117,16.544z"/>
</g>
<g>
</g>
<g>
</g>
<g>
</g>
<g>
</g>
<g>
</g>
<g>
</g>
<g>
</g>
<g>
</g>
<g>
</g>
<g>
</g>
<g>
</g>
<g>
</g>
<g>
</g>
<g>
</g>
<g>
</g>
</svg>
